<?xml version="1.0" encoding="UTF-8"?>
<svg id="Layer_1" xmlns="http://www.w3.org/2000/svg" xmlns:xlink="http://www.w3.org/1999/xlink" version="1.1" viewBox="0 0 182 42">
  <!-- Generator: Adobe Illustrator 30.4.0, SVG Export Plug-In . SVG Version: 2.1.4 Build 226)  -->
  <defs>
    <style>
      .st0 {
        fill: none;
      }

      .st1 {
        fill: #ba4591;
      }

      .st2 {
        fill: #2b5473;
      }

      .st3 {
        fill: #fab50f;
      }

      .st4 {
        fill: #91bf21;
      }

      .st5 {
        clip-path: url(#clippath);
      }
    </style>
    <clipPath id="clippath">
      <rect class="st0" x=".5" y=".5" width="181" height="41"/>
    </clipPath>
  </defs>
  <g class="st5">
    <path class="st2" d="M12.8,12.4c7.2,0,12.3,5.2,12.3,13.1v15.9h-4v-15.9c0-5.6-3.4-9.3-8.3-9.3s-8.4,3.7-8.4,9.3v15.9H.5v-15.9c0-7.9,5-13.1,12.4-13.1"/>
    <path class="st2" d="M28.5,26.9c0-7.8,5.6-14.4,14.2-14.4,7.9,0,13.4,5.7,13.4,12.5s-1.3,5.8-3.1,8.6h-4.5c2.1-2.9,3.5-5.3,3.5-8.2,0-4.9-3.7-9.1-9.2-9.1s-10.1,4.9-10.1,10.5,4,10.8,12.3,10.8h10.3l-1.4,3.8h-9.2c-10,0-16-6.7-16-14.6"/>
  </g>
  <polygon class="st2" points="96.2 13.1 87.8 34.4 78.9 13.1 77.2 13.1 68.5 34.1 60.1 13.1 55.7 13.1 67.4 41.5 69 41.5 78 20.1 87.1 41.5 88.7 41.5 100.4 13.1 96.2 13.1"/>
  <path class="st2" d="M137.9,26.6c0-8.8,6.5-14.7,15.2-14.7s15,5.9,15,14.7v14.9h-9.2v-14.4c0-4.1-2.7-6.3-5.9-6.3s-5.8,2.7-5.8,5.9,2.9,6.1,6.9,6.1h2.7l-2.4,8.7h-1c-8.9,0-15.4-6.2-15.4-14.9"/>
  <path class="st2" d="M171.8,12.6h9.2v28.9h-9.2V12.6ZM171.2,5.4c0-2.9,2.3-4.9,5.2-4.9s5.2,2.1,5.2,4.9-2.2,5-5.2,5-5.2-2.1-5.2-5"/>
  <path class="st2" d="M129.4,26.5c4-2.1,6.5-7.1,6.5-11,0-8.2-5.1-14.3-15.2-14.3h-4.3v8.9h4.3c3.5,0,5.7,2.4,5.7,5.4s-2.2,5.2-5.7,5.2h-4.3l10.2,20.7h10.5l-7.6-14.9Z"/>
  <rect class="st1" x="103.8" y="1.2" width="8.9" height="8.9"/>
  <rect class="st3" x="103.8" y="32.5" width="8.9" height="8.9"/>
  <rect class="st4" x="103.8" y="16.9" width="8.9" height="8.9"/>
</svg>