<?xml version="1.0" encoding="UTF-8"?>
<svg id="Layer_1" xmlns="http://www.w3.org/2000/svg" version="1.1" viewBox="0 0 146.9 48">
  <!-- Generator: Adobe Illustrator 30.4.0, SVG Export Plug-In . SVG Version: 2.1.4 Build 226)  -->
  <defs>
    <style>
      .st0 {
        fill: #fff;
      }
    </style>
  </defs>
  <path class="st0" d="M30.2,34.9c-1,1.4-2.1,2.7-3.2,3.9-1.1-1.2-2.2-2.5-3.2-3.9,1,0,2.1,0,3.1,0s2.2,0,3.3,0M13.6,33.7c2.2.5,4.7.8,7.3,1,1.5,2.1,3.1,4,4.6,5.7-.3.3-.7.7-1,.9-2.2,1.9-4.3,3.2-6,3.8-1.8.6-3.1.6-3.8.1-.7-.4-1.4-1.4-1.7-3.1-.3-1.7-.3-4,.2-6.7.1-.6.2-1.2.4-1.8M40.5,33.6c.1.4.2.9.3,1.3.6,2.8.6,5.3.3,7.1-.3,1.8-1.1,2.9-1.8,3.4-.7.4-1.9.5-3.5-.1-1.6-.6-3.6-1.8-5.7-3.6-.5-.4-.9-.8-1.4-1.2,1.5-1.7,3.1-3.6,4.5-5.7,2.6-.2,5-.6,7.3-1.1M15.9,26.7c.5.9,1,1.9,1.5,2.8.5.9,1.1,1.9,1.7,2.8-1.7-.2-3.4-.5-5-.8.5-1.5,1.1-3.1,1.7-4.8M38.1,26.6c.7,1.6,1.3,3.2,1.8,4.7-1.6.4-3.3.6-5,.9.6-.9,1.1-1.8,1.7-2.7.5-1,1.1-1.9,1.6-2.9M112.5,25.2c1.7,0,3.5.7,4.4,2v3c-1,1.3-2.7,2-4.4,2s-3.9-1.4-3.9-3.5,1.6-3.5,3.9-3.5M96,19.3c3.6,0,5.2,2.9,5.3,5.3h-10.4c.1-2.4,1.8-5.3,5.2-5.3M27,19.1c-2.7,0-4.8,2.2-4.8,4.8,0,2.7,2.2,4.8,4.8,4.8,2.7,0,4.8-2.2,4.8-4.8h0c0-2.7-2.2-4.8-4.8-4.8M42,17.2c.5.2,1.1.3,1.6.5,2.6.9,4.7,2,6.1,3.2,1.4,1.1,1.9,2.2,1.9,3s-.6,2-2.1,3.2c-1.5,1.2-3.7,2.4-6.5,3.4-.3,0-.6.2-.9.3-.7-2.2-1.6-4.5-2.7-6.8,1.1-2.3,2-4.6,2.6-6.7M130.9,17.2c-4.7,0-8,3.6-8,8.3s3.3,8.4,8,8.4,4.6-1.2,5.9-2.8l-1.6-1.5c-1.1,1.4-2.4,2.1-4,2.1-3.5,0-5.6-2.6-5.6-6.2s2.1-6.1,5.6-6.1,3,.6,4,2.1l1.6-1.5c-1.2-1.6-3-2.8-5.9-2.8M113.2,17.2c-2.6,0-4.6.9-6.3,2.6l1.2,1.7c1.4-1.5,3-2.2,4.9-2.2s4,1.2,4,3.4v2.9c-1.3-1.5-3.2-2.2-5.3-2.2s-5.6,1.7-5.6,5.2,2.9,5.3,5.6,5.3,3.9-.8,5.3-2.2v1.8h2.4v-11c0-3.9-2.8-5.4-6.1-5.4M96.1,17.2c-4.6,0-7.9,3.7-7.9,8.3s3.4,8.4,8.1,8.4,4.8-.9,6.3-2.4l-1.2-1.6c-1.2,1.3-3.1,2-4.9,2-3.4,0-5.5-2.5-5.7-5.5h12.8v-.6c0-4.8-2.8-8.5-7.6-8.5M12,17.2c.7,2.2,1.6,4.5,2.6,6.8-1.1,2.4-2,4.7-2.7,6.9-.5-.1-.9-.3-1.3-.4-2.7-.9-4.9-2.1-6.3-3.3-1.4-1.2-2-2.4-2-3.2s.5-1.9,1.9-3c1.3-1.1,3.4-2.3,5.9-3.2.6-.2,1.2-.4,1.9-.6M34.8,15.8c1.7.2,3.4.5,4.9.9-.5,1.5-1,3.1-1.7,4.6-.5-.9-1-1.9-1.5-2.8-.5-.9-1.1-1.8-1.6-2.7M19.1,15.8c-.6.9-1.1,1.8-1.7,2.7-.5.9-1,1.9-1.5,2.8-.7-1.6-1.2-3.2-1.7-4.7,1.5-.3,3.2-.6,4.9-.8M27,15.3c1.7,0,3.3,0,4.9.2.9,1.3,1.8,2.7,2.6,4.2.8,1.4,1.6,2.9,2.3,4.3-.7,1.5-1.5,2.9-2.3,4.4-.8,1.4-1.7,2.8-2.6,4.2-1.6.1-3.3.2-4.9.2s-3.3,0-4.9-.2c-.9-1.3-1.8-2.7-2.6-4.2-.8-1.5-1.6-2.9-2.3-4.3.7-1.4,1.5-2.9,2.3-4.3.8-1.5,1.7-2.8,2.6-4.2,1.6-.1,3.2-.2,4.9-.2M73.3,14h5.8c2.6,0,4.4,1.7,4.4,4.2s-1.8,4.2-4.4,4.2h-5.8v-8.4ZM140.4,13.3v4.4h-2.6v2.2h2.6v10.4c0,2.4,1.2,3.7,3.6,3.7s2.4-.4,3-1l-.8-1.8c-.3.4-1,.7-1.6.7-1.1,0-1.6-.9-1.6-2v-9.9h3.3v-2.2h-3.3v-4.4h-2.5ZM70.6,11.5v22h2.7v-8.7h4.4l5.6,8.7h3.2l-5.9-9c3-.3,5.7-2.4,5.7-6.4s-2.9-6.6-6.9-6.6h-8.8ZM27,9.3c1.1,1.1,2.1,2.4,3.2,3.8-1,0-2.1,0-3.2,0s-2.1,0-3.2,0c1.1-1.4,2.1-2.7,3.2-3.8M15.9,2.4h.2c.6,0,1.4.2,2.3.5,1.8.7,3.9,2,6.2,4,.3.2.5.5.8.8-1.6,1.7-3.1,3.6-4.6,5.7-2.5.2-5,.6-7.2,1.1-.1-.6-.3-1.1-.4-1.7-.5-2.7-.6-5.1-.3-6.9.3-1.8,1-2.8,1.7-3.2.3-.2.7-.3,1.3-.3h0ZM37.8,2.3c.6,0,1.1,0,1.4.3.7.4,1.4,1.5,1.7,3.4.3,1.9.2,4.4-.4,7.3,0,.4-.2.7-.2,1.1-2.2-.5-4.7-.9-7.2-1.1-1.5-2.1-3-4-4.6-5.7.4-.4.8-.8,1.2-1.1,2.1-1.8,4.1-3.1,5.8-3.7.8-.3,1.6-.4,2.2-.5M38,0h-.2c-.9,0-1.9.2-3,.6-2,.8-4.3,2.1-6.5,4.1-.4.4-.9.8-1.3,1.2-.3-.3-.6-.6-.9-.8-2.4-2.1-4.7-3.6-6.9-4.4-1.1-.4-2.1-.6-3.1-.7-1,0-1.9.2-2.7.6-1.6.9-2.4,2.7-2.8,4.8-.4,2.2-.3,4.8.3,7.7.1.6.2,1.2.4,1.8-.7.2-1.4.4-2,.6-2.8,1-5.1,2.2-6.7,3.6-1.6,1.4-2.7,3-2.7,4.8s1.1,3.5,2.8,5c1.7,1.5,4.1,2.8,7,3.8.5.2,1,.3,1.5.5-.2.7-.3,1.3-.4,1.9-.5,2.9-.6,5.5-.2,7.6.4,2.1,1.3,3.8,2.8,4.7,1.6.9,3.6.8,5.7,0,2.1-.7,4.4-2.2,6.8-4.2.4-.3.7-.7,1.1-1,.5.5,1,.9,1.5,1.3,2.2,1.9,4.4,3.3,6.4,4,2,.7,3.9.8,5.5,0,1.6-.9,2.5-2.7,2.9-4.9.4-2.2.3-4.9-.3-8,0-.5-.2-1-.3-1.4.3-.1.7-.2,1-.3,3-1,5.5-2.3,7.3-3.7,1.8-1.5,2.9-3.1,2.9-5s-1.1-3.4-2.8-4.8c-1.7-1.4-4-2.6-6.8-3.6-.6-.2-1.1-.4-1.7-.5,0-.4.2-.8.3-1.2.6-3.1.8-5.9.4-8.2-.4-2.3-1.3-4.1-2.9-5-.7-.4-1.5-.6-2.4-.6"/>
</svg>